<?xml version="1.0" standalone="no"?>
<!DOCTYPE svg PUBLIC "-//W3C//DTD SVG 20010904//EN"
 "http://www.w3.org/TR/2001/REC-SVG-20010904/DTD/svg10.dtd">
<svg version="1.0" xmlns="http://www.w3.org/2000/svg"
 width="150.000000pt" height="150.000000pt" viewBox="0 0 150.000000 150.000000"
 preserveAspectRatio="xMidYMid meet">

<g transform="translate(0.000000,150.000000) scale(0.100000,-0.100000)"
fill="#000000" stroke="none">
<path d="M615 1486 c-160 -32 -271 -92 -391 -211 -77 -76 -98 -105 -137 -185
-65 -131 -81 -200 -81 -340 0 -140 16 -209 81 -340 39 -80 61 -109 137 -186
77 -76 106 -98 186 -137 131 -65 200 -81 340 -81 140 0 209 16 340 81 80 39
109 61 186 137 76 77 98 106 137 186 65 131 81 200 81 340 0 140 -16 209 -81
340 -39 80 -61 109 -137 186 -77 76 -106 98 -186 137 -52 26 -122 54 -155 62
-86 22 -236 27 -320 11z m317 -31 c135 -35 247 -103 348 -212 112 -120 171
-244 192 -408 19 -149 -17 -322 -94 -453 -43 -73 -187 -217 -260 -260 -221
-130 -515 -130 -736 0 -73 43 -217 187 -260 260 -130 221 -130 515 0 736 43
73 187 217 260 260 68 40 177 79 256 92 74 12 218 4 294 -15z"/>
<path d="M1014 787 c-42 -24 -134 -102 -134 -114 0 -19 3 -17 70 29 33 22 63
39 65 36 3 -3 -6 -25 -20 -49 -13 -24 -25 -56 -25 -71 0 -30 23 -58 47 -58 23
0 121 70 145 102 27 39 36 35 31 -15 -5 -39 -2 -46 22 -66 18 -14 35 -19 49
-15 42 12 97 56 113 90 15 30 15 39 4 72 -8 20 -19 40 -25 44 -40 27 -129 -15
-223 -103 -60 -55 -97 -76 -123 -67 -7 2 3 26 25 58 34 51 36 57 26 92 -14 45
-20 50 -47 35z m328 -59 c-8 -8 -8 -15 -1 -24 15 -18 1 -58 -29 -87 -65 -62
-110 -19 -62 58 11 18 35 40 53 49 38 19 56 21 39 4z"/>
<path d="M620 520 c0 -5 7 -10 15 -10 10 0 15 -10 15 -30 0 -16 5 -30 10 -30
6 0 10 12 10 26 0 15 8 33 18 40 15 12 12 13 -25 14 -24 0 -43 -4 -43 -10z"/>
<path d="M710 490 c0 -38 2 -40 30 -40 35 0 40 17 8 23 l-23 4 23 2 c12 0 22
5 22 10 0 5 -10 12 -22 14 l-23 4 23 2 c33 2 27 21 -8 21 -28 0 -30 -2 -30
-40z"/>
<path d="M784 516 c-11 -30 1 -61 25 -64 13 -2 28 1 34 7 15 15 0 26 -16 13
-17 -14 -27 -6 -27 21 0 14 5 18 20 14 24 -6 36 8 14 17 -26 10 -44 7 -50 -8z"/>
<path d="M860 490 c0 -41 20 -58 21 -17 l0 22 16 -22 c23 -34 33 -28 33 17 0
22 -4 40 -10 40 -5 0 -10 -10 -10 -22 l0 -22 -16 22 c-23 33 -34 27 -34 -18z"/>
<path d="M962 521 c-8 -5 -12 -21 -10 -37 2 -23 9 -30 30 -32 19 -2 30 3 38
17 21 40 -20 77 -58 52z m36 -33 c-2 -13 -7 -23 -13 -23 -5 0 -11 10 -13 23
-2 15 2 22 13 22 11 0 15 -7 13 -22z"/>
<path d="M1040 490 c0 -38 2 -40 30 -40 17 0 30 5 30 10 0 6 -9 10 -20 10 -16
0 -20 7 -20 30 0 17 -4 30 -10 30 -5 0 -10 -18 -10 -40z"/>
<path d="M1122 521 c-8 -5 -12 -21 -10 -37 2 -23 9 -30 30 -32 19 -2 30 3 38
17 21 40 -20 77 -58 52z m36 -33 c-2 -13 -7 -23 -13 -23 -5 0 -11 10 -13 23
-2 15 2 22 13 22 11 0 15 -7 13 -22z"/>
<path d="M1212 521 c-8 -4 -12 -21 -10 -37 3 -25 7 -29 33 -29 20 0 31 5 33
18 2 11 -3 17 -15 17 -14 0 -15 -2 -4 -9 9 -6 10 -11 2 -15 -16 -10 -31 2 -31
25 0 15 6 19 20 17 10 -2 20 2 22 7 4 13 -33 18 -50 6z"/>
<path d="M1280 490 c0 -22 5 -40 10 -40 6 0 10 18 10 40 0 22 -4 40 -10 40 -5
0 -10 -18 -10 -40z"/>
<path d="M1328 491 l-15 -38 38 1 c44 1 43 -1 27 43 -16 43 -32 42 -50 -6z
m32 4 c0 -8 -4 -15 -10 -15 -5 0 -7 7 -4 15 4 8 8 15 10 15 2 0 4 -7 4 -15z"/>
</g>
</svg>
